# xmcd
#
# Track frame offsets:
# 150
# 13972
# 29208
# 44318
# 65702
# 74683
# 89450
# 101047
# 113513
# 126172
# 138155
# 151744
# 170807
#
# Disc length: 2505 seconds
#
#
# Revision: 0
# Processed by: cddbd v1.5.2PL0 Copyright (c) Steve Scherf et al.
# Submitted via: FreeRIP 2.945 
#
DISCID=be09c70d
DTITLE=Humberto and Lorival - Domingo
DYEAR=1900
DGENRE=Sertanejo
TTITLE0=Domingo
TTITLE1=Faz Amor Comigo
TTITLE2=Cheguei no Rodeio
TTITLE3=Por Você
TTITLE4=Dia de Rodeio
TTITLE5=Não Sou Babaca
TTITLE6=Arena da Paixão
TTITLE7=E Eu Que Ainda Te Amo
TTITLE8=Saudade do Meu Rincão
TTITLE9=Carga Pesada
TTITLE10=Mil Amores
TTITLE11=Nossa História
TTITLE12=Cheguei no Rodeio - Dia de Rodeio (Remix)
EXTD=
EXTT0=
EXTT1=
EXTT2=
EXTT3=
EXTT4=
EXTT5=
EXTT6=
EXTT7=
EXTT8=
EXTT9=
EXTT10=
EXTT11=
EXTT12=
PLAYORDER=
